<svg width="1200" height="160" viewBox="0 0 1200 160" fill="none" xmlns="http://www.w3.org/2000/svg">
<g clip-path="url(#clip0)">
<path d="M0 89.0795L13.375 85.9545C26.625 82.8295 53.375 76.5795 80 66.5795C106.625 56.5795 133.375 42.8295 160 44.0795C186.625 45.3295 213.375 61.5795 240 69.0795C266.625 76.5795 293.375 75.3296 320 73.7046C346.625 71.9546 373.375 69.9545 400 65.7045C426.625 61.5795 453.375 55.3295 480 58.8295C506.625 62.4545 533.375 75.7045 560 80.0795C586.625 84.4545 613.375 79.9545 640 79.4545C666.625 79.0795 693.375 82.8296 720 76.8296C746.625 70.7046 773.375 54.9545 800 52.5795C826.625 50.3295 853.375 61.5795 880 70.0795C906.625 78.7045 933.375 84.4546 960 81.2046C986.625 77.8296 1013.38 65.3295 1040 64.0795C1066.62 62.8295 1093.38 72.8296 1120 76.8296C1146.62 80.7046 1173.37 78.7045 1186.62 77.5795L1200 76.5795V160.33H1186.62C1173.37 160.33 1146.62 160.33 1120 160.33C1093.38 160.33 1066.62 160.33 1040 160.33C1013.38 160.33 986.625 160.33 960 160.33C933.375 160.33 906.625 160.33 880 160.33C853.375 160.33 826.625 160.33 800 160.33C773.375 160.33 746.625 160.33 720 160.33C693.375 160.33 666.625 160.33 640 160.33C613.375 160.33 586.625 160.33 560 160.33C533.375 160.33 506.625 160.33 480 160.33C453.375 160.33 426.625 160.33 400 160.33C373.375 160.33 346.625 160.33 320 160.33C293.375 160.33 266.625 160.33 240 160.33C213.375 160.33 186.625 160.33 160 160.33C133.375 160.33 106.625 160.33 80 160.33C53.375 160.33 26.625 160.33 13.375 160.33H0V89.0795Z" fill="#FA7268"/>
<path d="M0 95.3295L13.375 88.2045C26.625 81.2045 53.375 66.9545 80 67.5795C106.625 68.2045 133.375 83.7046 160 84.3296C186.625 84.9546 213.375 70.7046 240 64.9546C266.625 59.0796 293.375 61.5795 320 70.0795C346.625 78.7045 373.375 93.2045 400 99.0795C426.625 104.955 453.375 101.955 480 92.2045C506.625 82.4545 533.375 65.7045 560 63.4545C586.625 61.2045 613.375 73.2045 640 73.4545C666.625 73.7045 693.375 61.9545 720 64.7045C746.625 67.4545 773.375 84.4546 800 89.9546C826.625 95.3296 853.375 89.0795 880 80.9545C906.625 72.8295 933.375 62.8295 960 57.8295C986.625 52.8295 1013.38 52.8295 1040 60.9545C1066.62 69.0795 1093.38 85.3295 1120 84.7045C1146.62 84.0795 1173.37 66.5795 1186.62 57.8295L1200 49.0795V160.33H1186.62C1173.37 160.33 1146.62 160.33 1120 160.33C1093.38 160.33 1066.62 160.33 1040 160.33C1013.38 160.33 986.625 160.33 960 160.33C933.375 160.33 906.625 160.33 880 160.33C853.375 160.33 826.625 160.33 800 160.33C773.375 160.33 746.625 160.33 720 160.33C693.375 160.33 666.625 160.33 640 160.33C613.375 160.33 586.625 160.33 560 160.33C533.375 160.33 506.625 160.33 480 160.33C453.375 160.33 426.625 160.33 400 160.33C373.375 160.33 346.625 160.33 320 160.33C293.375 160.33 266.625 160.33 240 160.33C213.375 160.33 186.625 160.33 160 160.33C133.375 160.33 106.625 160.33 80 160.33C53.375 160.33 26.625 160.33 13.375 160.33H0V95.3295Z" fill="#EF5F67"/>
<path d="M0 110.33L13.375 109.33C26.625 108.205 53.375 106.205 80 103.705C106.625 101.205 133.375 98.2046 160 94.9546C186.625 91.5796 213.375 87.8295 240 88.8295C266.625 89.9545 293.375 95.7045 320 98.8295C346.625 101.955 373.375 102.455 400 100.58C426.625 98.7046 453.375 94.4545 480 89.4545C506.625 84.4545 533.375 78.7046 560 75.5796C586.625 72.4546 613.375 71.9546 640 78.7046C666.625 85.3296 693.375 99.0796 720 107.205C746.625 115.33 773.375 117.83 800 118.83C826.625 119.955 853.375 119.455 880 119.455C906.625 119.455 933.375 119.955 960 113.705C986.625 107.455 1013.38 94.4546 1040 91.2046C1066.62 87.8296 1093.38 94.0795 1120 98.2045C1146.62 102.455 1173.37 104.455 1186.62 105.58L1200 106.58V160.33H1186.62C1173.37 160.33 1146.62 160.33 1120 160.33C1093.38 160.33 1066.62 160.33 1040 160.33C1013.38 160.33 986.625 160.33 960 160.33C933.375 160.33 906.625 160.33 880 160.33C853.375 160.33 826.625 160.33 800 160.33C773.375 160.33 746.625 160.33 720 160.33C693.375 160.33 666.625 160.33 640 160.33C613.375 160.33 586.625 160.33 560 160.33C533.375 160.33 506.625 160.33 480 160.33C453.375 160.33 426.625 160.33 400 160.33C373.375 160.33 346.625 160.33 320 160.33C293.375 160.33 266.625 160.33 240 160.33C213.375 160.33 186.625 160.33 160 160.33C133.375 160.33 106.625 160.33 80 160.33C53.375 160.33 26.625 160.33 13.375 160.33H0V110.33Z" fill="#E34C67"/>
<path d="M0 135.33L13.375 131.33C26.625 127.455 53.375 119.455 80 116.955C106.625 114.455 133.375 117.455 160 121.58C186.625 125.705 213.375 131.205 240 128.205C266.625 125.33 293.375 114.08 320 111.955C346.625 109.955 373.375 116.955 400 116.33C426.625 115.705 453.375 107.455 480 107.205C506.625 106.955 533.375 114.955 560 115.955C586.625 116.955 613.375 111.205 640 108.83C666.625 106.58 693.375 107.83 720 113.455C746.625 119.08 773.375 129.08 800 126.33C826.625 123.705 853.375 108.205 880 107.455C906.625 106.58 933.375 120.33 960 122.58C986.625 124.955 1013.38 115.705 1040 114.08C1066.62 112.455 1093.38 118.205 1120 121.33C1146.62 124.455 1173.37 124.955 1186.62 125.08L1200 125.33V160.33H1186.62C1173.37 160.33 1146.62 160.33 1120 160.33C1093.38 160.33 1066.62 160.33 1040 160.33C1013.38 160.33 986.625 160.33 960 160.33C933.375 160.33 906.625 160.33 880 160.33C853.375 160.33 826.625 160.33 800 160.33C773.375 160.33 746.625 160.33 720 160.33C693.375 160.33 666.625 160.33 640 160.33C613.375 160.33 586.625 160.33 560 160.33C533.375 160.33 506.625 160.33 480 160.33C453.375 160.33 426.625 160.33 400 160.33C373.375 160.33 346.625 160.33 320 160.33C293.375 160.33 266.625 160.33 240 160.33C213.375 160.33 186.625 160.33 160 160.33C133.375 160.33 106.625 160.33 80 160.33C53.375 160.33 26.625 160.33 13.375 160.33H0V135.33Z" fill="#D53867"/>
<path d="M0 130.33L13.375 129.33C26.625 128.205 53.375 126.205 80 124.955C106.625 123.705 133.375 123.205 160 123.455C186.625 123.705 213.375 124.455 240 127.83C266.625 131.205 293.375 136.955 320 140.705C346.625 144.455 373.375 146.205 400 145.33C426.625 144.455 453.375 141.205 480 141.955C506.625 142.83 533.375 147.83 560 149.33C586.625 150.705 613.375 148.705 640 149.08C666.625 149.455 693.375 152.455 720 151.955C746.625 151.58 773.375 147.83 800 143.83C826.625 139.955 853.375 135.705 880 136.58C906.625 137.455 933.375 143.205 960 142.205C986.625 141.205 1013.38 133.205 1040 127.83C1066.62 122.455 1093.38 119.455 1120 124.455C1146.62 129.455 1173.37 142.455 1186.62 148.83L1200 155.33V160.33H1186.62C1173.37 160.33 1146.62 160.33 1120 160.33C1093.38 160.33 1066.62 160.33 1040 160.33C1013.38 160.33 986.625 160.33 960 160.33C933.375 160.33 906.625 160.33 880 160.33C853.375 160.33 826.625 160.33 800 160.33C773.375 160.33 746.625 160.33 720 160.33C693.375 160.33 666.625 160.33 640 160.33C613.375 160.33 586.625 160.33 560 160.33C533.375 160.33 506.625 160.33 480 160.33C453.375 160.33 426.625 160.33 400 160.33C373.375 160.33 346.625 160.33 320 160.33C293.375 160.33 266.625 160.33 240 160.33C213.375 160.33 186.625 160.33 160 160.33C133.375 160.33 106.625 160.33 80 160.33C53.375 160.33 26.625 160.33 13.375 160.33H0V130.33Z" fill="#C62368"/>
</g>
<defs>
<clipPath id="clip0">
<rect width="1200" height="160" fill="white"/>
</clipPath>
</defs>
</svg>
