<svg width="1200" height="160" viewBox="0 0 1200 160" fill="none" xmlns="http://www.w3.org/2000/svg">
<g clip-path="url(#clip0)">
<path d="M0 86.1233L13.375 87.1233C26.625 88.1233 53.375 90.1233 80 92.1233C106.625 94.1233 133.375 96.1233 160 93.6233C186.625 91.1233 213.375 84.1233 240 77.6233C266.625 71.1233 293.375 65.1233 320 69.1233C346.625 73.1233 373.375 87.1232 400 87.9232C426.625 88.8232 453.375 76.4233 480 73.3233C506.625 70.1233 533.375 76.1232 560 74.9232C586.625 73.8232 613.375 65.4232 640 61.9232C666.625 58.4232 693.375 59.8233 720 65.1233C746.625 70.4233 773.375 79.8232 800 84.4232C826.625 89.1232 853.375 89.1233 880 85.8233C906.625 82.4233 933.375 75.8232 960 76.9232C986.625 78.1232 1013.38 87.1233 1040 91.8233C1066.62 96.4233 1093.38 96.8233 1120 93.3233C1146.62 89.8233 1173.37 82.4233 1186.62 78.8233L1200 75.1233V160.123H1186.62C1173.37 160.123 1146.62 160.123 1120 160.123C1093.38 160.123 1066.62 160.123 1040 160.123C1013.38 160.123 986.625 160.123 960 160.123C933.375 160.123 906.625 160.123 880 160.123C853.375 160.123 826.625 160.123 800 160.123C773.375 160.123 746.625 160.123 720 160.123C693.375 160.123 666.625 160.123 640 160.123C613.375 160.123 586.625 160.123 560 160.123C533.375 160.123 506.625 160.123 480 160.123C453.375 160.123 426.625 160.123 400 160.123C373.375 160.123 346.625 160.123 320 160.123C293.375 160.123 266.625 160.123 240 160.123C213.375 160.123 186.625 160.123 160 160.123C133.375 160.123 106.625 160.123 80 160.123C53.375 160.123 26.625 160.123 13.375 160.123H0L0 86.1233Z" fill="#FA7268"/>
<path d="M0 82.1233L13.375 83.1233C26.625 84.1233 53.375 86.1233 80 89.1233C106.625 92.1233 133.375 96.1233 160 96.8233C186.625 97.4233 213.375 94.8233 240 96.4233C266.625 98.1233 293.375 104.123 320 101.623C346.625 99.1233 373.375 88.1233 400 84.4233C426.625 80.8233 453.375 84.4233 480 88.4233C506.625 92.4233 533.375 96.8233 560 98.8233C586.625 100.823 613.375 100.423 640 97.6233C666.625 94.8233 693.375 89.4233 720 88.6233C746.625 87.8233 773.375 91.4233 800 95.6233C826.625 99.8233 853.375 104.423 880 106.923C906.625 109.423 933.375 109.823 960 110.423C986.625 111.123 1013.38 112.123 1040 111.323C1066.62 110.423 1093.38 107.823 1120 102.823C1146.62 97.8233 1173.37 90.4233 1186.62 86.8233L1200 83.1233V160.123H1186.62C1173.37 160.123 1146.62 160.123 1120 160.123C1093.38 160.123 1066.62 160.123 1040 160.123C1013.38 160.123 986.625 160.123 960 160.123C933.375 160.123 906.625 160.123 880 160.123C853.375 160.123 826.625 160.123 800 160.123C773.375 160.123 746.625 160.123 720 160.123C693.375 160.123 666.625 160.123 640 160.123C613.375 160.123 586.625 160.123 560 160.123C533.375 160.123 506.625 160.123 480 160.123C453.375 160.123 426.625 160.123 400 160.123C373.375 160.123 346.625 160.123 320 160.123C293.375 160.123 266.625 160.123 240 160.123C213.375 160.123 186.625 160.123 160 160.123C133.375 160.123 106.625 160.123 80 160.123C53.375 160.123 26.625 160.123 13.375 160.123H0L0 82.1233Z" fill="#EF5F67"/>
<path d="M0 90.1233L13.375 90.8233C26.625 91.4233 53.375 92.8233 80 97.3233C106.625 101.823 133.375 109.423 160 109.623C186.625 109.823 213.375 102.423 240 103.923C266.625 105.423 293.375 115.823 320 121.623C346.625 127.423 373.375 128.823 400 126.623C426.625 124.423 453.375 118.823 480 114.623C506.625 110.423 533.375 107.823 560 108.123C586.625 108.423 613.375 111.823 640 112.423C666.625 113.123 693.375 111.123 720 111.423C746.625 111.823 773.375 114.423 800 116.123C826.625 117.823 853.375 118.423 880 120.323C906.625 122.123 933.375 125.123 960 121.423C986.625 117.823 1013.38 107.423 1040 104.823C1066.62 102.123 1093.38 107.123 1120 111.423C1146.62 115.823 1173.37 119.423 1186.62 121.323L1200 123.123V160.123H1186.62C1173.37 160.123 1146.62 160.123 1120 160.123C1093.38 160.123 1066.62 160.123 1040 160.123C1013.38 160.123 986.625 160.123 960 160.123C933.375 160.123 906.625 160.123 880 160.123C853.375 160.123 826.625 160.123 800 160.123C773.375 160.123 746.625 160.123 720 160.123C693.375 160.123 666.625 160.123 640 160.123C613.375 160.123 586.625 160.123 560 160.123C533.375 160.123 506.625 160.123 480 160.123C453.375 160.123 426.625 160.123 400 160.123C373.375 160.123 346.625 160.123 320 160.123C293.375 160.123 266.625 160.123 240 160.123C213.375 160.123 186.625 160.123 160 160.123C133.375 160.123 106.625 160.123 80 160.123C53.375 160.123 26.625 160.123 13.375 160.123H0L0 90.1233Z" fill="#E34C67"/>
<path d="M0 141.123L13.375 139.123C26.625 137.123 53.375 133.123 80 128.423C106.625 123.823 133.375 118.423 160 116.623C186.625 114.823 213.375 116.423 240 117.923C266.625 119.423 293.375 120.823 320 121.823C346.625 122.823 373.375 123.423 400 126.123C426.625 128.823 453.375 133.423 480 132.623C506.625 131.823 533.375 125.423 560 122.823C586.625 120.123 613.375 121.123 640 122.823C666.625 124.423 693.375 126.823 720 128.123C746.625 129.423 773.375 129.823 800 130.623C826.625 131.423 853.375 132.823 880 131.323C906.625 129.823 933.375 125.423 960 126.423C986.625 127.423 1013.38 133.823 1040 132.623C1066.62 131.423 1093.38 122.823 1120 121.823C1146.62 120.823 1173.37 127.423 1186.62 130.823L1200 134.123V160.123H1186.62C1173.37 160.123 1146.62 160.123 1120 160.123C1093.38 160.123 1066.62 160.123 1040 160.123C1013.38 160.123 986.625 160.123 960 160.123C933.375 160.123 906.625 160.123 880 160.123C853.375 160.123 826.625 160.123 800 160.123C773.375 160.123 746.625 160.123 720 160.123C693.375 160.123 666.625 160.123 640 160.123C613.375 160.123 586.625 160.123 560 160.123C533.375 160.123 506.625 160.123 480 160.123C453.375 160.123 426.625 160.123 400 160.123C373.375 160.123 346.625 160.123 320 160.123C293.375 160.123 266.625 160.123 240 160.123C213.375 160.123 186.625 160.123 160 160.123C133.375 160.123 106.625 160.123 80 160.123C53.375 160.123 26.625 160.123 13.375 160.123H0L0 141.123Z" fill="#D53867"/>
<path d="M0 153.123L13.375 149.623C26.625 146.123 53.375 139.123 80 138.423C106.625 137.823 133.375 143.423 160 144.923C186.625 146.423 213.375 143.823 240 143.423C266.625 143.123 293.375 145.123 320 147.623C346.625 150.123 373.375 153.123 400 150.623C426.625 148.123 453.375 140.123 480 135.623C506.625 131.123 533.375 130.123 560 132.423C586.625 134.823 613.375 140.423 640 144.923C666.625 149.423 693.375 152.823 720 150.923C746.625 149.123 773.375 142.123 800 137.323C826.625 132.423 853.375 129.823 880 132.423C906.625 135.123 933.375 143.123 960 142.923C986.625 142.823 1013.38 134.423 1040 133.323C1066.62 132.123 1093.38 138.123 1120 140.123C1146.62 142.123 1173.37 140.123 1186.62 139.123L1200 138.123V160.123H1186.62C1173.37 160.123 1146.62 160.123 1120 160.123C1093.38 160.123 1066.62 160.123 1040 160.123C1013.38 160.123 986.625 160.123 960 160.123C933.375 160.123 906.625 160.123 880 160.123C853.375 160.123 826.625 160.123 800 160.123C773.375 160.123 746.625 160.123 720 160.123C693.375 160.123 666.625 160.123 640 160.123C613.375 160.123 586.625 160.123 560 160.123C533.375 160.123 506.625 160.123 480 160.123C453.375 160.123 426.625 160.123 400 160.123C373.375 160.123 346.625 160.123 320 160.123C293.375 160.123 266.625 160.123 240 160.123C213.375 160.123 186.625 160.123 160 160.123C133.375 160.123 106.625 160.123 80 160.123C53.375 160.123 26.625 160.123 13.375 160.123H0L0 153.123Z" fill="#C62368"/>
</g>
<defs>
<clipPath id="clip0">
<rect width="1200" height="160" fill="white"/>
</clipPath>
</defs>
</svg>
