<svg width="1200" height="160" viewBox="0 0 1200 160" fill="none" xmlns="http://www.w3.org/2000/svg">
<g clip-path="url(#clip0)">
<path d="M0 52.5798L13.375 52.3298C26.625 52.2048 53.375 51.7048 80 52.2048C106.625 52.5798 133.375 53.8298 160 58.5798C186.625 63.4548 213.375 71.7048 240 68.8298C266.625 65.9548 293.375 51.7048 320 46.9548C346.625 42.2048 373.375 46.7048 400 54.0798C426.625 61.3298 453.375 71.3298 480 74.7048C506.625 77.9548 533.375 74.7048 560 72.5798C586.625 70.4548 613.375 69.7048 640 68.4548C666.625 67.2048 693.375 65.4548 720 60.0798C746.625 54.7048 773.375 45.4548 800 47.2048C826.625 48.8298 853.375 61.3298 880 68.2048C906.625 75.0798 933.375 76.3298 960 73.4548C986.625 70.4548 1013.38 63.4548 1040 64.8298C1066.62 66.3298 1093.38 76.3298 1120 81.3298C1146.62 86.3298 1173.37 86.3298 1186.62 86.3298H1200V160.08H1186.62C1173.37 160.08 1146.62 160.08 1120 160.08C1093.38 160.08 1066.62 160.08 1040 160.08C1013.38 160.08 986.625 160.08 960 160.08C933.375 160.08 906.625 160.08 880 160.08C853.375 160.08 826.625 160.08 800 160.08C773.375 160.08 746.625 160.08 720 160.08C693.375 160.08 666.625 160.08 640 160.08C613.375 160.08 586.625 160.08 560 160.08C533.375 160.08 506.625 160.08 480 160.08C453.375 160.08 426.625 160.08 400 160.08C373.375 160.08 346.625 160.08 320 160.08C293.375 160.08 266.625 160.08 240 160.08C213.375 160.08 186.625 160.08 160 160.08C133.375 160.08 106.625 160.08 80 160.08C53.375 160.08 26.625 160.08 13.375 160.08H0V52.5798Z" fill="#FA7268"/>
<path d="M0 91.3298L13.375 87.9548C26.625 84.7048 53.375 77.9548 80 79.7048C106.625 81.3298 133.375 91.3298 160 96.0798C186.625 100.955 213.375 100.455 240 95.0798C266.625 89.7048 293.375 79.2048 320 73.2048C346.625 67.2048 373.375 65.4548 400 64.8298C426.625 64.2048 453.375 64.7048 480 70.0798C506.625 75.4548 533.375 85.9548 560 85.0798C586.625 84.2048 613.375 72.2048 640 65.0798C666.625 57.9548 693.375 55.9548 720 55.7048C746.625 55.4548 773.375 57.2048 800 61.9548C826.625 66.7048 853.375 74.7048 880 77.9548C906.625 81.3298 933.375 80.0798 960 74.8298C986.625 69.7048 1013.38 60.4548 1040 56.3298C1066.62 52.2048 1093.38 52.9548 1120 57.5798C1146.62 62.2048 1173.37 70.4548 1186.62 74.7048L1200 78.8298V160.08H1186.62C1173.37 160.08 1146.62 160.08 1120 160.08C1093.38 160.08 1066.62 160.08 1040 160.08C1013.38 160.08 986.625 160.08 960 160.08C933.375 160.08 906.625 160.08 880 160.08C853.375 160.08 826.625 160.08 800 160.08C773.375 160.08 746.625 160.08 720 160.08C693.375 160.08 666.625 160.08 640 160.08C613.375 160.08 586.625 160.08 560 160.08C533.375 160.08 506.625 160.08 480 160.08C453.375 160.08 426.625 160.08 400 160.08C373.375 160.08 346.625 160.08 320 160.08C293.375 160.08 266.625 160.08 240 160.08C213.375 160.08 186.625 160.08 160 160.08C133.375 160.08 106.625 160.08 80 160.08C53.375 160.08 26.625 160.08 13.375 160.08H0V91.3298Z" fill="#EF5F67"/>
<path d="M0 101.33L13.375 104.08C26.625 106.705 53.375 112.205 80 114.83C106.625 117.58 133.375 117.58 160 110.08C186.625 102.58 213.375 87.5798 240 84.2048C266.625 80.9548 293.375 89.2049 320 93.8299C346.625 98.4549 373.375 99.2049 400 102.58C426.625 105.955 453.375 111.705 480 112.83C506.625 113.83 533.375 110.08 560 110.955C586.625 111.705 613.375 117.205 640 111.33C666.625 105.455 693.375 88.4549 720 84.0799C746.625 79.7049 773.375 87.9549 800 91.5799C826.625 95.0799 853.375 93.8299 880 94.4549C906.625 95.0799 933.375 97.5798 960 97.3298C986.625 97.2048 1013.38 94.2049 1040 96.3299C1066.62 98.4549 1093.38 105.455 1120 110.455C1146.62 115.455 1173.37 118.455 1186.62 119.83L1200 121.33V160.08H1186.62C1173.37 160.08 1146.62 160.08 1120 160.08C1093.38 160.08 1066.62 160.08 1040 160.08C1013.38 160.08 986.625 160.08 960 160.08C933.375 160.08 906.625 160.08 880 160.08C853.375 160.08 826.625 160.08 800 160.08C773.375 160.08 746.625 160.08 720 160.08C693.375 160.08 666.625 160.08 640 160.08C613.375 160.08 586.625 160.08 560 160.08C533.375 160.08 506.625 160.08 480 160.08C453.375 160.08 426.625 160.08 400 160.08C373.375 160.08 346.625 160.08 320 160.08C293.375 160.08 266.625 160.08 240 160.08C213.375 160.08 186.625 160.08 160 160.08C133.375 160.08 106.625 160.08 80 160.08C53.375 160.08 26.625 160.08 13.375 160.08H0V101.33Z" fill="#E34C67"/>
<path d="M0 101.33H13.375C26.625 101.33 53.375 101.33 80 102.33C106.625 103.455 133.375 105.455 160 105.455C186.625 105.455 213.375 103.455 240 101.08C266.625 98.8298 293.375 96.3298 320 99.4548C346.625 102.58 373.375 111.33 400 114.08C426.625 116.705 453.375 113.455 480 113.455C506.625 113.455 533.375 116.705 560 114.83C586.625 112.955 613.375 105.955 640 104.705C666.625 103.455 693.375 107.955 720 112.205C746.625 116.33 773.375 120.08 800 117.83C826.625 115.455 853.375 107.205 880 109.08C906.625 110.955 933.375 122.955 960 128.205C986.625 133.455 1013.38 131.705 1040 130.705C1066.62 129.705 1093.38 129.205 1120 123.83C1146.62 118.455 1173.37 107.955 1186.62 102.83L1200 97.5798V160.08H1186.62C1173.37 160.08 1146.62 160.08 1120 160.08C1093.38 160.08 1066.62 160.08 1040 160.08C1013.38 160.08 986.625 160.08 960 160.08C933.375 160.08 906.625 160.08 880 160.08C853.375 160.08 826.625 160.08 800 160.08C773.375 160.08 746.625 160.08 720 160.08C693.375 160.08 666.625 160.08 640 160.08C613.375 160.08 586.625 160.08 560 160.08C533.375 160.08 506.625 160.08 480 160.08C453.375 160.08 426.625 160.08 400 160.08C373.375 160.08 346.625 160.08 320 160.08C293.375 160.08 266.625 160.08 240 160.08C213.375 160.08 186.625 160.08 160 160.08C133.375 160.08 106.625 160.08 80 160.08C53.375 160.08 26.625 160.08 13.375 160.08H0V101.33Z" fill="#D53867"/>
<path d="M0 138.83L13.375 136.705C26.625 134.705 53.375 130.455 80 130.08C106.625 129.705 133.375 132.955 160 136.33C186.625 139.705 213.375 142.955 240 141.705C266.625 140.455 293.375 134.705 320 130.955C346.625 127.205 373.375 125.455 400 127.955C426.625 130.455 453.375 137.205 480 140.08C506.625 142.955 533.375 142.205 560 138.455C586.625 134.705 613.375 127.955 640 124.08C666.625 120.08 693.375 118.83 720 117.955C746.625 117.205 773.375 116.705 800 122.205C826.625 127.58 853.375 138.83 880 144.205C906.625 149.705 933.375 149.205 960 144.205C986.625 139.205 1013.38 129.705 1040 125.955C1066.62 122.205 1093.38 124.205 1120 123.83C1146.62 123.455 1173.37 120.455 1186.62 119.08L1200 117.58V160.08H1186.62C1173.37 160.08 1146.62 160.08 1120 160.08C1093.38 160.08 1066.62 160.08 1040 160.08C1013.38 160.08 986.625 160.08 960 160.08C933.375 160.08 906.625 160.08 880 160.08C853.375 160.08 826.625 160.08 800 160.08C773.375 160.08 746.625 160.08 720 160.08C693.375 160.08 666.625 160.08 640 160.08C613.375 160.08 586.625 160.08 560 160.08C533.375 160.08 506.625 160.08 480 160.08C453.375 160.08 426.625 160.08 400 160.08C373.375 160.08 346.625 160.08 320 160.08C293.375 160.08 266.625 160.08 240 160.08C213.375 160.08 186.625 160.08 160 160.08C133.375 160.08 106.625 160.08 80 160.08C53.375 160.08 26.625 160.08 13.375 160.08H0V138.83Z" fill="#C62368"/>
</g>
<defs>
<clipPath id="clip0">
<rect width="1200" height="160" fill="white"/>
</clipPath>
</defs>
</svg>
