<svg width="1200" height="160" viewBox="0 0 1200 160" fill="none" xmlns="http://www.w3.org/2000/svg">
<g clip-path="url(#clip0)">
<path d="M0 28.1194L13.375 26.4944C26.625 24.7444 53.375 21.4944 80 25.6194C106.625 29.7444 133.375 41.4945 160 39.6195C186.625 37.7445 213.375 22.2444 240 14.6193C266.625 6.86928 293.375 6.86926 320 9.36928C346.625 11.8693 373.375 16.8694 400 20.8694C426.625 24.7444 453.375 27.7444 480 31.4945C506.625 35.2445 533.375 39.7445 560 42.8695C586.625 45.9946 613.375 47.7446 640 40.9945C666.625 34.3695 693.375 19.3694 720 19.3694C746.625 19.3694 773.375 34.3695 800 35.9945C826.625 37.7445 853.375 25.9944 880 18.9944C906.625 11.8693 933.375 9.36927 960 5.99424C986.625 2.74421 1013.38 -1.50582 1040 2.86922C1066.62 7.24425 1093.38 20.2444 1120 25.8694C1146.62 31.4945 1173.37 29.7445 1186.62 28.9945L1200 28.1194V124.37H1186.62C1173.37 124.37 1146.62 124.37 1120 124.37C1093.38 124.37 1066.62 124.37 1040 124.37C1013.38 124.37 986.625 124.37 960 124.37C933.375 124.37 906.625 124.37 880 124.37C853.375 124.37 826.625 124.37 800 124.37C773.375 124.37 746.625 124.37 720 124.37C693.375 124.37 666.625 124.37 640 124.37C613.375 124.37 586.625 124.37 560 124.37C533.375 124.37 506.625 124.37 480 124.37C453.375 124.37 426.625 124.37 400 124.37C373.375 124.37 346.625 124.37 320 124.37C293.375 124.37 266.625 124.37 240 124.37C213.375 124.37 186.625 124.37 160 124.37C133.375 124.37 106.625 124.37 80 124.37C53.375 124.37 26.625 124.37 13.375 124.37H0V28.1194Z" fill="#FA7268"/>
<path d="M0 53.1199L13.375 52.1199C26.625 50.9949 53.375 48.9949 80 43.4948C106.625 38.1198 133.375 29.3698 160 30.8698C186.625 32.2448 213.375 43.9948 240 49.7449C266.625 55.6199 293.375 55.6199 320 52.8699C346.625 50.2449 373.375 44.7449 400 45.8699C426.625 46.8699 453.375 54.3699 480 52.4949C506.625 50.6199 533.375 39.3698 560 32.4948C586.625 25.6198 613.375 23.1198 640 22.2448C666.625 21.4948 693.375 22.2448 720 30.8698C746.625 39.3699 773.375 55.6199 800 54.1199C826.625 52.7449 853.375 33.4948 880 25.9948C906.625 18.4947 933.375 22.7448 960 26.4948C986.625 30.2448 1013.38 33.4948 1040 35.8698C1066.62 38.1199 1093.38 39.3698 1120 35.9948C1146.62 32.7448 1173.37 24.7448 1186.62 20.8698L1200 16.8698V124.37H1186.62C1173.37 124.37 1146.62 124.37 1120 124.37C1093.38 124.37 1066.62 124.37 1040 124.37C1013.38 124.37 986.625 124.37 960 124.37C933.375 124.37 906.625 124.37 880 124.37C853.375 124.37 826.625 124.37 800 124.37C773.375 124.37 746.625 124.37 720 124.37C693.375 124.37 666.625 124.37 640 124.37C613.375 124.37 586.625 124.37 560 124.37C533.375 124.37 506.625 124.37 480 124.37C453.375 124.37 426.625 124.37 400 124.37C373.375 124.37 346.625 124.37 320 124.37C293.375 124.37 266.625 124.37 240 124.37C213.375 124.37 186.625 124.37 160 124.37C133.375 124.37 106.625 124.37 80 124.37C53.375 124.37 26.625 124.37 13.375 124.37H0V53.1199Z" fill="#EF5F67"/>
<path d="M0 81.8707L13.375 82.4956C26.625 83.1206 53.375 84.3706 80 81.6206C106.625 78.9957 133.375 72.2458 160 68.7458C186.625 65.2458 213.375 64.7458 240 60.9959C266.625 57.2459 293.375 50.246 320 51.496C346.625 52.746 373.375 62.2459 400 64.7458C426.625 67.2458 453.375 62.7459 480 63.9959C506.625 65.2459 533.375 72.2458 560 73.7457C586.625 75.2457 613.375 70.9958 640 71.4958C666.625 71.8708 693.375 76.8707 720 71.6208C746.625 66.4958 773.375 50.996 800 46.871C826.625 42.7461 853.375 49.746 880 55.6209C906.625 61.4959 933.375 65.9958 960 62.7459C986.625 59.3709 1013.38 48.121 1040 47.246C1066.62 46.496 1093.38 55.9959 1120 55.9959C1146.62 55.9959 1173.37 46.496 1186.62 41.6211L1200 36.8712V124.37H1186.62C1173.37 124.37 1146.62 124.37 1120 124.37C1093.38 124.37 1066.62 124.37 1040 124.37C1013.38 124.37 986.625 124.37 960 124.37C933.375 124.37 906.625 124.37 880 124.37C853.375 124.37 826.625 124.37 800 124.37C773.375 124.37 746.625 124.37 720 124.37C693.375 124.37 666.625 124.37 640 124.37C613.375 124.37 586.625 124.37 560 124.37C533.375 124.37 506.625 124.37 480 124.37C453.375 124.37 426.625 124.37 400 124.37C373.375 124.37 346.625 124.37 320 124.37C293.375 124.37 266.625 124.37 240 124.37C213.375 124.37 186.625 124.37 160 124.37C133.375 124.37 106.625 124.37 80 124.37C53.375 124.37 26.625 124.37 13.375 124.37H0V81.8707Z" fill="#E34C67"/>
<path d="M0 74.3701L13.375 72.4951C26.625 70.6201 53.375 66.87 80 66.87C106.625 66.87 133.375 70.6201 160 70.2451C186.625 69.7451 213.375 65.245 240 62.245C266.625 59.37 293.375 58.12 320 64.12C346.625 70.245 373.375 83.4951 400 85.3701C426.625 87.2451 453.375 77.7451 480 75.2451C506.625 72.7451 533.375 77.2451 560 79.9951C586.625 82.7451 613.375 83.4951 640 86.6201C666.625 89.7451 693.375 95.2451 720 90.9951C746.625 86.8701 773.375 73.12 800 70.37C826.625 67.745 853.375 75.9951 880 83.3701C906.625 90.6201 933.375 96.8701 960 93.1201C986.625 89.3701 1013.38 75.6201 1040 75.6201C1066.62 75.6201 1093.38 89.3701 1120 95.8702C1146.62 102.245 1173.37 101.495 1186.62 100.995L1200 100.62V124.37H1186.62C1173.37 124.37 1146.62 124.37 1120 124.37C1093.38 124.37 1066.62 124.37 1040 124.37C1013.38 124.37 986.625 124.37 960 124.37C933.375 124.37 906.625 124.37 880 124.37C853.375 124.37 826.625 124.37 800 124.37C773.375 124.37 746.625 124.37 720 124.37C693.375 124.37 666.625 124.37 640 124.37C613.375 124.37 586.625 124.37 560 124.37C533.375 124.37 506.625 124.37 480 124.37C453.375 124.37 426.625 124.37 400 124.37C373.375 124.37 346.625 124.37 320 124.37C293.375 124.37 266.625 124.37 240 124.37C213.375 124.37 186.625 124.37 160 124.37C133.375 124.37 106.625 124.37 80 124.37C53.375 124.37 26.625 124.37 13.375 124.37H0V74.3701Z" fill="#D53867"/>
<path d="M0 104.37L13.375 100.37C26.625 96.4946 53.375 88.4944 80 89.7444C106.625 90.9945 133.375 101.495 160 105.62C186.625 109.745 213.375 107.745 240 102.745C266.625 97.7446 293.375 89.7445 320 90.2445C346.625 90.6195 373.375 99.3697 400 100.87C426.625 102.245 453.375 96.4946 480 95.8696C506.625 95.2446 533.375 99.7447 560 102.12C586.625 104.37 613.375 104.37 640 105.995C666.625 107.745 693.375 110.995 720 109.745C746.625 108.495 773.375 102.745 800 102.745C826.625 102.745 853.375 108.495 880 106.87C906.625 105.245 933.375 95.9946 960 95.3696C986.625 94.7445 1013.38 102.745 1040 106.495C1066.62 110.245 1093.38 109.745 1120 108.745C1146.62 107.745 1173.37 105.995 1186.62 105.245L1200 104.37V124.37H1186.62C1173.37 124.37 1146.62 124.37 1120 124.37C1093.38 124.37 1066.62 124.37 1040 124.37C1013.38 124.37 986.625 124.37 960 124.37C933.375 124.37 906.625 124.37 880 124.37C853.375 124.37 826.625 124.37 800 124.37C773.375 124.37 746.625 124.37 720 124.37C693.375 124.37 666.625 124.37 640 124.37C613.375 124.37 586.625 124.37 560 124.37C533.375 124.37 506.625 124.37 480 124.37C453.375 124.37 426.625 124.37 400 124.37C373.375 124.37 346.625 124.37 320 124.37C293.375 124.37 266.625 124.37 240 124.37C213.375 124.37 186.625 124.37 160 124.37C133.375 124.37 106.625 124.37 80 124.37C53.375 124.37 26.625 124.37 13.375 124.37H0V104.37Z" fill="#C62368"/>
<rect y="123.12" width="1200" height="37" fill="#C62368"/>
</g>
<defs>
<clipPath id="clip0">
<rect width="1200" height="160" fill="white"/>
</clipPath>
</defs>
</svg>
