<svg id="visual" viewBox="0 0 960 540" width="960" height="540" xmlns="http://www.w3.org/2000/svg" xmlns:xlink="http://www.w3.org/1999/xlink" version="1.1"><rect x="0" y="0" width="960" height="540" fill="#ffffff"></rect><path d="M0 467L10.7 468C21.3 469 42.7 471 64 473C85.3 475 106.7 477 128 474.5C149.3 472 170.7 465 192 458.5C213.3 452 234.7 446 256 450C277.3 454 298.7 468 320 468.8C341.3 469.7 362.7 457.3 384 454.2C405.3 451 426.7 457 448 455.8C469.3 454.7 490.7 446.3 512 442.8C533.3 439.3 554.7 440.7 576 446C597.3 451.3 618.7 460.7 640 465.3C661.3 470 682.7 470 704 466.7C725.3 463.3 746.7 456.7 768 457.8C789.3 459 810.7 468 832 472.7C853.3 477.3 874.7 477.7 896 474.2C917.3 470.7 938.7 463.3 949.3 459.7L960 456L960 541L949.3 541C938.7 541 917.3 541 896 541C874.7 541 853.3 541 832 541C810.7 541 789.3 541 768 541C746.7 541 725.3 541 704 541C682.7 541 661.3 541 640 541C618.7 541 597.3 541 576 541C554.7 541 533.3 541 512 541C490.7 541 469.3 541 448 541C426.7 541 405.3 541 384 541C362.7 541 341.3 541 320 541C298.7 541 277.3 541 256 541C234.7 541 213.3 541 192 541C170.7 541 149.3 541 128 541C106.7 541 85.3 541 64 541C42.7 541 21.3 541 10.7 541L0 541Z" fill="#fa7268"></path><path d="M0 463L10.7 464C21.3 465 42.7 467 64 470C85.3 473 106.7 477 128 477.7C149.3 478.3 170.7 475.7 192 477.3C213.3 479 234.7 485 256 482.5C277.3 480 298.7 469 320 465.3C341.3 461.7 362.7 465.3 384 469.3C405.3 473.3 426.7 477.7 448 479.7C469.3 481.7 490.7 481.3 512 478.5C533.3 475.7 554.7 470.3 576 469.5C597.3 468.7 618.7 472.3 640 476.5C661.3 480.7 682.7 485.3 704 487.8C725.3 490.3 746.7 490.7 768 491.3C789.3 492 810.7 493 832 492.2C853.3 491.3 874.7 488.7 896 483.7C917.3 478.7 938.7 471.3 949.3 467.7L960 464L960 541L949.3 541C938.7 541 917.3 541 896 541C874.7 541 853.3 541 832 541C810.7 541 789.3 541 768 541C746.7 541 725.3 541 704 541C682.7 541 661.3 541 640 541C618.7 541 597.3 541 576 541C554.7 541 533.3 541 512 541C490.7 541 469.3 541 448 541C426.7 541 405.3 541 384 541C362.7 541 341.3 541 320 541C298.7 541 277.3 541 256 541C234.7 541 213.3 541 192 541C170.7 541 149.3 541 128 541C106.7 541 85.3 541 64 541C42.7 541 21.3 541 10.7 541L0 541Z" fill="#ef5f67"></path><path d="M0 471L10.7 471.7C21.3 472.3 42.7 473.7 64 478.2C85.3 482.7 106.7 490.3 128 490.5C149.3 490.7 170.7 483.3 192 484.8C213.3 486.3 234.7 496.7 256 502.5C277.3 508.3 298.7 509.7 320 507.5C341.3 505.3 362.7 499.7 384 495.5C405.3 491.3 426.7 488.7 448 489C469.3 489.3 490.7 492.7 512 493.3C533.3 494 554.7 492 576 492.3C597.3 492.7 618.7 495.3 640 497C661.3 498.7 682.7 499.3 704 501.2C725.3 503 746.7 506 768 502.3C789.3 498.7 810.7 488.3 832 485.7C853.3 483 874.7 488 896 492.3C917.3 496.7 938.7 500.3 949.3 502.2L960 504L960 541L949.3 541C938.7 541 917.3 541 896 541C874.7 541 853.3 541 832 541C810.7 541 789.3 541 768 541C746.7 541 725.3 541 704 541C682.7 541 661.3 541 640 541C618.7 541 597.3 541 576 541C554.7 541 533.3 541 512 541C490.7 541 469.3 541 448 541C426.7 541 405.3 541 384 541C362.7 541 341.3 541 320 541C298.7 541 277.3 541 256 541C234.7 541 213.3 541 192 541C170.7 541 149.3 541 128 541C106.7 541 85.3 541 64 541C42.7 541 21.3 541 10.7 541L0 541Z" fill="#e34c67"></path><path d="M0 522L10.7 520C21.3 518 42.7 514 64 509.3C85.3 504.7 106.7 499.3 128 497.5C149.3 495.7 170.7 497.3 192 498.8C213.3 500.3 234.7 501.7 256 502.7C277.3 503.7 298.7 504.3 320 507C341.3 509.7 362.7 514.3 384 513.5C405.3 512.7 426.7 506.3 448 503.7C469.3 501 490.7 502 512 503.7C533.3 505.3 554.7 507.7 576 509C597.3 510.3 618.7 510.7 640 511.5C661.3 512.3 682.7 513.7 704 512.2C725.3 510.7 746.7 506.3 768 507.3C789.3 508.3 810.7 514.7 832 513.5C853.3 512.3 874.7 503.7 896 502.7C917.3 501.7 938.7 508.3 949.3 511.7L960 515L960 541L949.3 541C938.7 541 917.3 541 896 541C874.7 541 853.3 541 832 541C810.7 541 789.3 541 768 541C746.7 541 725.3 541 704 541C682.7 541 661.3 541 640 541C618.7 541 597.3 541 576 541C554.7 541 533.3 541 512 541C490.7 541 469.3 541 448 541C426.7 541 405.3 541 384 541C362.7 541 341.3 541 320 541C298.7 541 277.3 541 256 541C234.7 541 213.3 541 192 541C170.7 541 149.3 541 128 541C106.7 541 85.3 541 64 541C42.7 541 21.3 541 10.7 541L0 541Z" fill="#d53867"></path><path d="M0 534L10.7 530.5C21.3 527 42.7 520 64 519.3C85.3 518.7 106.7 524.3 128 525.8C149.3 527.3 170.7 524.7 192 524.3C213.3 524 234.7 526 256 528.5C277.3 531 298.7 534 320 531.5C341.3 529 362.7 521 384 516.5C405.3 512 426.7 511 448 513.3C469.3 515.7 490.7 521.3 512 525.8C533.3 530.3 554.7 533.7 576 531.8C597.3 530 618.7 523 640 518.2C661.3 513.3 682.7 510.7 704 513.3C725.3 516 746.7 524 768 523.8C789.3 523.7 810.7 515.3 832 514.2C853.3 513 874.7 519 896 521C917.3 523 938.7 521 949.3 520L960 519L960 541L949.3 541C938.7 541 917.3 541 896 541C874.7 541 853.3 541 832 541C810.7 541 789.3 541 768 541C746.7 541 725.3 541 704 541C682.7 541 661.3 541 640 541C618.7 541 597.3 541 576 541C554.7 541 533.3 541 512 541C490.7 541 469.3 541 448 541C426.7 541 405.3 541 384 541C362.7 541 341.3 541 320 541C298.7 541 277.3 541 256 541C234.7 541 213.3 541 192 541C170.7 541 149.3 541 128 541C106.7 541 85.3 541 64 541C42.7 541 21.3 541 10.7 541L0 541Z" fill="#c62368"></path></svg>