<svg id="visual" viewBox="0 0 960 540" width="960" height="540" xmlns="http://www.w3.org/2000/svg" xmlns:xlink="http://www.w3.org/1999/xlink" version="1.1"><rect x="0" y="0" width="960" height="540" fill="#ffffff"></rect><path d="M0 464L10.7 462.7C21.3 461.3 42.7 458.7 64 462C85.3 465.3 106.7 474.7 128 473.2C149.3 471.7 170.7 459.3 192 453.2C213.3 447 234.7 447 256 449C277.3 451 298.7 455 320 458.2C341.3 461.3 362.7 463.7 384 466.7C405.3 469.7 426.7 473.3 448 475.8C469.3 478.3 490.7 479.7 512 474.3C533.3 469 554.7 457 576 457C597.3 457 618.7 469 640 470.3C661.3 471.7 682.7 462.3 704 456.7C725.3 451 746.7 449 768 446.3C789.3 443.7 810.7 440.3 832 443.8C853.3 447.3 874.7 457.7 896 462.2C917.3 466.7 938.7 465.3 949.3 464.7L960 464L960 541L949.3 541C938.7 541 917.3 541 896 541C874.7 541 853.3 541 832 541C810.7 541 789.3 541 768 541C746.7 541 725.3 541 704 541C682.7 541 661.3 541 640 541C618.7 541 597.3 541 576 541C554.7 541 533.3 541 512 541C490.7 541 469.3 541 448 541C426.7 541 405.3 541 384 541C362.7 541 341.3 541 320 541C298.7 541 277.3 541 256 541C234.7 541 213.3 541 192 541C170.7 541 149.3 541 128 541C106.7 541 85.3 541 64 541C42.7 541 21.3 541 10.7 541L0 541Z" fill="#fa7268"></path><path d="M0 484L10.7 483.2C21.3 482.3 42.7 480.7 64 476.3C85.3 472 106.7 465 128 466.2C149.3 467.3 170.7 476.7 192 481.3C213.3 486 234.7 486 256 483.8C277.3 481.7 298.7 477.3 320 478.2C341.3 479 362.7 485 384 483.5C405.3 482 426.7 473 448 467.5C469.3 462 490.7 460 512 459.3C533.3 458.7 554.7 459.3 576 466.2C597.3 473 618.7 486 640 484.8C661.3 483.7 682.7 468.3 704 462.3C725.3 456.3 746.7 459.7 768 462.7C789.3 465.7 810.7 468.3 832 470.2C853.3 472 874.7 473 896 470.3C917.3 467.7 938.7 461.3 949.3 458.2L960 455L960 541L949.3 541C938.7 541 917.3 541 896 541C874.7 541 853.3 541 832 541C810.7 541 789.3 541 768 541C746.7 541 725.3 541 704 541C682.7 541 661.3 541 640 541C618.7 541 597.3 541 576 541C554.7 541 533.3 541 512 541C490.7 541 469.3 541 448 541C426.7 541 405.3 541 384 541C362.7 541 341.3 541 320 541C298.7 541 277.3 541 256 541C234.7 541 213.3 541 192 541C170.7 541 149.3 541 128 541C106.7 541 85.3 541 64 541C42.7 541 21.3 541 10.7 541L0 541Z" fill="#ef5f67"></path><path d="M0 507L10.7 507.5C21.3 508 42.7 509 64 506.8C85.3 504.7 106.7 499.3 128 496.5C149.3 493.7 170.7 493.3 192 490.3C213.3 487.3 234.7 481.7 256 482.7C277.3 483.7 298.7 491.3 320 493.3C341.3 495.3 362.7 491.7 384 492.7C405.3 493.7 426.7 499.3 448 500.5C469.3 501.7 490.7 498.3 512 498.7C533.3 499 554.7 503 576 498.8C597.3 494.7 618.7 482.3 640 479C661.3 475.7 682.7 481.3 704 486C725.3 490.7 746.7 494.3 768 491.7C789.3 489 810.7 480 832 479.3C853.3 478.7 874.7 486.3 896 486.3C917.3 486.3 938.7 478.7 949.3 474.8L960 471L960 541L949.3 541C938.7 541 917.3 541 896 541C874.7 541 853.3 541 832 541C810.7 541 789.3 541 768 541C746.7 541 725.3 541 704 541C682.7 541 661.3 541 640 541C618.7 541 597.3 541 576 541C554.7 541 533.3 541 512 541C490.7 541 469.3 541 448 541C426.7 541 405.3 541 384 541C362.7 541 341.3 541 320 541C298.7 541 277.3 541 256 541C234.7 541 213.3 541 192 541C170.7 541 149.3 541 128 541C106.7 541 85.3 541 64 541C42.7 541 21.3 541 10.7 541L0 541Z" fill="#e34c67"></path><path d="M0 501L10.7 499.5C21.3 498 42.7 495 64 495C85.3 495 106.7 498 128 497.7C149.3 497.3 170.7 493.7 192 491.3C213.3 489 234.7 488 256 492.8C277.3 497.7 298.7 508.3 320 509.8C341.3 511.3 362.7 503.7 384 501.7C405.3 499.7 426.7 503.3 448 505.5C469.3 507.7 490.7 508.3 512 510.8C533.3 513.3 554.7 517.7 576 514.3C597.3 511 618.7 500 640 497.8C661.3 495.7 682.7 502.3 704 508.2C725.3 514 746.7 519 768 516C789.3 513 810.7 502 832 502C853.3 502 874.7 513 896 518.2C917.3 523.3 938.7 522.7 949.3 522.3L960 522L960 541L949.3 541C938.7 541 917.3 541 896 541C874.7 541 853.3 541 832 541C810.7 541 789.3 541 768 541C746.7 541 725.3 541 704 541C682.7 541 661.3 541 640 541C618.7 541 597.3 541 576 541C554.7 541 533.3 541 512 541C490.7 541 469.3 541 448 541C426.7 541 405.3 541 384 541C362.7 541 341.3 541 320 541C298.7 541 277.3 541 256 541C234.7 541 213.3 541 192 541C170.7 541 149.3 541 128 541C106.7 541 85.3 541 64 541C42.7 541 21.3 541 10.7 541L0 541Z" fill="#d53867"></path><path d="M0 525L10.7 521.8C21.3 518.7 42.7 512.3 64 513.3C85.3 514.3 106.7 522.7 128 526C149.3 529.3 170.7 527.7 192 523.7C213.3 519.7 234.7 513.3 256 513.7C277.3 514 298.7 521 320 522.2C341.3 523.3 362.7 518.7 384 518.2C405.3 517.7 426.7 521.3 448 523.2C469.3 525 490.7 525 512 526.3C533.3 527.7 554.7 530.3 576 529.3C597.3 528.3 618.7 523.7 640 523.7C661.3 523.7 682.7 528.3 704 527C725.3 525.7 746.7 518.3 768 517.8C789.3 517.3 810.7 523.7 832 526.7C853.3 529.7 874.7 529.3 896 528.5C917.3 527.7 938.7 526.3 949.3 525.7L960 525L960 541L949.3 541C938.7 541 917.3 541 896 541C874.7 541 853.3 541 832 541C810.7 541 789.3 541 768 541C746.7 541 725.3 541 704 541C682.7 541 661.3 541 640 541C618.7 541 597.3 541 576 541C554.7 541 533.3 541 512 541C490.7 541 469.3 541 448 541C426.7 541 405.3 541 384 541C362.7 541 341.3 541 320 541C298.7 541 277.3 541 256 541C234.7 541 213.3 541 192 541C170.7 541 149.3 541 128 541C106.7 541 85.3 541 64 541C42.7 541 21.3 541 10.7 541L0 541Z" fill="#c62368"></path></svg>