<svg id="visual" viewBox="0 0 960 540" width="960" height="540" xmlns="http://www.w3.org/2000/svg" xmlns:xlink="http://www.w3.org/1999/xlink" version="1.1"><rect x="0" y="0" width="960" height="540" fill="#ffffff"></rect><path d="M0 455L10.7 454.8C21.3 454.7 42.7 454.3 64 454.7C85.3 455 106.7 456 128 459.8C149.3 463.7 170.7 470.3 192 468C213.3 465.7 234.7 454.3 256 450.5C277.3 446.7 298.7 450.3 320 456.2C341.3 462 362.7 470 384 472.7C405.3 475.3 426.7 472.7 448 471C469.3 469.3 490.7 468.7 512 467.7C533.3 466.7 554.7 465.3 576 461C597.3 456.7 618.7 449.3 640 450.7C661.3 452 682.7 462 704 467.5C725.3 473 746.7 474 768 471.7C789.3 469.3 810.7 463.7 832 464.8C853.3 466 874.7 474 896 478C917.3 482 938.7 482 949.3 482L960 482L960 541L949.3 541C938.7 541 917.3 541 896 541C874.7 541 853.3 541 832 541C810.7 541 789.3 541 768 541C746.7 541 725.3 541 704 541C682.7 541 661.3 541 640 541C618.7 541 597.3 541 576 541C554.7 541 533.3 541 512 541C490.7 541 469.3 541 448 541C426.7 541 405.3 541 384 541C362.7 541 341.3 541 320 541C298.7 541 277.3 541 256 541C234.7 541 213.3 541 192 541C170.7 541 149.3 541 128 541C106.7 541 85.3 541 64 541C42.7 541 21.3 541 10.7 541L0 541Z" fill="#fa7268"></path><path d="M0 486L10.7 483.3C21.3 480.7 42.7 475.3 64 476.7C85.3 478 106.7 486 128 489.8C149.3 493.7 170.7 493.3 192 489C213.3 484.7 234.7 476.3 256 471.5C277.3 466.7 298.7 465.3 320 464.8C341.3 464.3 362.7 464.7 384 469C405.3 473.3 426.7 481.7 448 481C469.3 480.3 490.7 470.7 512 465C533.3 459.3 554.7 457.7 576 457.5C597.3 457.3 618.7 458.7 640 462.5C661.3 466.3 682.7 472.7 704 475.3C725.3 478 746.7 477 768 472.8C789.3 468.7 810.7 461.3 832 458C853.3 454.7 874.7 455.3 896 459C917.3 462.7 938.7 469.3 949.3 472.7L960 476L960 541L949.3 541C938.7 541 917.3 541 896 541C874.7 541 853.3 541 832 541C810.7 541 789.3 541 768 541C746.7 541 725.3 541 704 541C682.7 541 661.3 541 640 541C618.7 541 597.3 541 576 541C554.7 541 533.3 541 512 541C490.7 541 469.3 541 448 541C426.7 541 405.3 541 384 541C362.7 541 341.3 541 320 541C298.7 541 277.3 541 256 541C234.7 541 213.3 541 192 541C170.7 541 149.3 541 128 541C106.7 541 85.3 541 64 541C42.7 541 21.3 541 10.7 541L0 541Z" fill="#ef5f67"></path><path d="M0 494L10.7 496.2C21.3 498.3 42.7 502.7 64 504.8C85.3 507 106.7 507 128 501C149.3 495 170.7 483 192 480.3C213.3 477.7 234.7 484.3 256 488C277.3 491.7 298.7 492.3 320 495C341.3 497.7 362.7 502.3 384 503.2C405.3 504 426.7 501 448 501.7C469.3 502.3 490.7 506.7 512 502C533.3 497.3 554.7 483.7 576 480.2C597.3 476.7 618.7 483.3 640 486.2C661.3 489 682.7 488 704 488.5C725.3 489 746.7 491 768 490.8C789.3 490.7 810.7 488.3 832 490C853.3 491.7 874.7 497.3 896 501.3C917.3 505.3 938.7 507.7 949.3 508.8L960 510L960 541L949.3 541C938.7 541 917.3 541 896 541C874.7 541 853.3 541 832 541C810.7 541 789.3 541 768 541C746.7 541 725.3 541 704 541C682.7 541 661.3 541 640 541C618.7 541 597.3 541 576 541C554.7 541 533.3 541 512 541C490.7 541 469.3 541 448 541C426.7 541 405.3 541 384 541C362.7 541 341.3 541 320 541C298.7 541 277.3 541 256 541C234.7 541 213.3 541 192 541C170.7 541 149.3 541 128 541C106.7 541 85.3 541 64 541C42.7 541 21.3 541 10.7 541L0 541Z" fill="#e34c67"></path><path d="M0 494L10.7 494C21.3 494 42.7 494 64 494.8C85.3 495.7 106.7 497.3 128 497.3C149.3 497.3 170.7 495.7 192 493.8C213.3 492 234.7 490 256 492.5C277.3 495 298.7 502 320 504.2C341.3 506.3 362.7 503.7 384 503.7C405.3 503.7 426.7 506.3 448 504.8C469.3 503.3 490.7 497.7 512 496.7C533.3 495.7 554.7 499.3 576 502.7C597.3 506 618.7 509 640 507.2C661.3 505.3 682.7 498.7 704 500.2C725.3 501.7 746.7 511.3 768 515.5C789.3 519.7 810.7 518.3 832 517.5C853.3 516.7 874.7 516.3 896 512C917.3 507.7 938.7 499.3 949.3 495.2L960 491L960 541L949.3 541C938.7 541 917.3 541 896 541C874.7 541 853.3 541 832 541C810.7 541 789.3 541 768 541C746.7 541 725.3 541 704 541C682.7 541 661.3 541 640 541C618.7 541 597.3 541 576 541C554.7 541 533.3 541 512 541C490.7 541 469.3 541 448 541C426.7 541 405.3 541 384 541C362.7 541 341.3 541 320 541C298.7 541 277.3 541 256 541C234.7 541 213.3 541 192 541C170.7 541 149.3 541 128 541C106.7 541 85.3 541 64 541C42.7 541 21.3 541 10.7 541L0 541Z" fill="#d53867"></path><path d="M0 524L10.7 522.3C21.3 520.7 42.7 517.3 64 517C85.3 516.7 106.7 519.3 128 522C149.3 524.7 170.7 527.3 192 526.3C213.3 525.3 234.7 520.7 256 517.7C277.3 514.7 298.7 513.3 320 515.3C341.3 517.3 362.7 522.7 384 525C405.3 527.3 426.7 526.7 448 523.7C469.3 520.7 490.7 515.3 512 512.2C533.3 509 554.7 508 576 507.3C597.3 506.7 618.7 506.3 640 510.7C661.3 515 682.7 524 704 528.3C725.3 532.7 746.7 532.3 768 528.3C789.3 524.3 810.7 516.7 832 513.7C853.3 510.7 874.7 512.3 896 512C917.3 511.7 938.7 509.3 949.3 508.2L960 507L960 541L949.3 541C938.7 541 917.3 541 896 541C874.7 541 853.3 541 832 541C810.7 541 789.3 541 768 541C746.7 541 725.3 541 704 541C682.7 541 661.3 541 640 541C618.7 541 597.3 541 576 541C554.7 541 533.3 541 512 541C490.7 541 469.3 541 448 541C426.7 541 405.3 541 384 541C362.7 541 341.3 541 320 541C298.7 541 277.3 541 256 541C234.7 541 213.3 541 192 541C170.7 541 149.3 541 128 541C106.7 541 85.3 541 64 541C42.7 541 21.3 541 10.7 541L0 541Z" fill="#c62368"></path></svg>